<svg width="206" height="47" viewBox="0 0 206 47" fill="none" xmlns="http://www.w3.org/2000/svg">
<path d="M177.866 35.308V17.92H182.582V35.308H177.866ZM189.206 35.308V25.048C189.206 24.04 188.882 23.26 188.234 22.708C187.61 22.132 186.83 21.844 185.894 21.844C185.27 21.844 184.706 21.976 184.202 22.24C183.698 22.48 183.302 22.84 183.014 23.32C182.726 23.8 182.582 24.376 182.582 25.048L180.746 24.148C180.746 22.804 181.034 21.64 181.61 20.656C182.21 19.672 183.014 18.916 184.022 18.388C185.03 17.836 186.17 17.56 187.442 17.56C188.642 17.56 189.734 17.836 190.718 18.388C191.702 18.916 192.482 19.672 193.058 20.656C193.634 21.616 193.922 22.78 193.922 24.148V35.308H189.206ZM200.546 35.308V25.048C200.546 24.04 200.222 23.26 199.574 22.708C198.95 22.132 198.17 21.844 197.234 21.844C196.634 21.844 196.07 21.976 195.542 22.24C195.038 22.48 194.642 22.84 194.354 23.32C194.066 23.8 193.922 24.376 193.922 25.048L191.222 24.4C191.318 23.008 191.69 21.808 192.338 20.8C192.986 19.768 193.838 18.976 194.894 18.424C195.95 17.848 197.126 17.56 198.422 17.56C199.718 17.56 200.882 17.836 201.914 18.388C202.946 18.916 203.762 19.684 204.362 20.692C204.962 21.7 205.262 22.9 205.262 24.292V35.308H200.546Z" fill="#111111"/>
<path d="M165.542 35.668C163.79 35.668 162.206 35.272 160.79 34.48C159.398 33.664 158.282 32.572 157.442 31.204C156.626 29.812 156.218 28.264 156.218 26.56C156.218 24.856 156.626 23.332 157.442 21.988C158.258 20.62 159.374 19.54 160.79 18.748C162.206 17.932 163.778 17.524 165.506 17.524C167.282 17.524 168.866 17.932 170.258 18.748C171.674 19.54 172.79 20.62 173.606 21.988C174.422 23.332 174.83 24.856 174.83 26.56C174.83 28.264 174.422 29.812 173.606 31.204C172.79 32.572 171.674 33.664 170.258 34.48C168.866 35.272 167.294 35.668 165.542 35.668ZM165.506 31.276C166.394 31.276 167.174 31.084 167.846 30.7C168.542 30.292 169.07 29.74 169.43 29.044C169.814 28.324 170.006 27.508 170.006 26.596C170.006 25.684 169.814 24.88 169.43 24.184C169.046 23.488 168.518 22.948 167.846 22.564C167.174 22.156 166.394 21.952 165.506 21.952C164.642 21.952 163.874 22.156 163.202 22.564C162.53 22.948 162.002 23.488 161.618 24.184C161.234 24.88 161.042 25.684 161.042 26.596C161.042 27.508 161.234 28.324 161.618 29.044C162.002 29.74 162.53 30.292 163.202 30.7C163.874 31.084 164.642 31.276 165.506 31.276Z" fill="#111111"/>
<path d="M148.246 35.668C146.47 35.668 144.874 35.272 143.458 34.48C142.042 33.688 140.926 32.608 140.11 31.24C139.294 29.872 138.886 28.336 138.886 26.632C138.886 24.904 139.294 23.356 140.11 21.988C140.926 20.62 142.042 19.54 143.458 18.748C144.898 17.932 146.494 17.524 148.246 17.524C149.614 17.524 150.874 17.776 152.026 18.28C153.178 18.784 154.174 19.504 155.014 20.44L151.99 23.5C151.534 22.996 150.982 22.612 150.334 22.348C149.71 22.084 149.014 21.952 148.246 21.952C147.382 21.952 146.602 22.156 145.906 22.564C145.234 22.948 144.694 23.488 144.286 24.184C143.902 24.856 143.71 25.66 143.71 26.596C143.71 27.508 143.902 28.324 144.286 29.044C144.694 29.74 145.234 30.292 145.906 30.7C146.602 31.084 147.382 31.276 148.246 31.276C149.038 31.276 149.746 31.144 150.37 30.88C151.018 30.592 151.57 30.184 152.026 29.656L155.086 32.716C154.198 33.676 153.178 34.408 152.026 34.912C150.874 35.416 149.614 35.668 148.246 35.668Z" fill="#111111"/>
<path d="M130.018 35.704C129.034 35.704 128.062 35.572 127.102 35.308C126.166 35.044 125.302 34.684 124.51 34.228C123.718 33.748 123.034 33.172 122.458 32.5L125.266 29.656C125.866 30.328 126.562 30.832 127.354 31.168C128.146 31.504 129.022 31.672 129.982 31.672C130.75 31.672 131.326 31.564 131.71 31.348C132.118 31.132 132.322 30.808 132.322 30.376C132.322 29.896 132.106 29.524 131.674 29.26C131.266 28.996 130.726 28.78 130.054 28.612C129.382 28.42 128.674 28.216 127.93 28C127.21 27.76 126.514 27.46 125.842 27.1C125.17 26.716 124.618 26.2 124.186 25.552C123.778 24.88 123.574 24.016 123.574 22.96C123.574 21.856 123.838 20.896 124.366 20.08C124.918 19.264 125.698 18.628 126.706 18.172C127.714 17.716 128.902 17.488 130.27 17.488C131.71 17.488 133.006 17.74 134.158 18.244C135.334 18.748 136.306 19.504 137.074 20.512L134.23 23.356C133.702 22.708 133.102 22.24 132.43 21.952C131.782 21.664 131.074 21.52 130.306 21.52C129.61 21.52 129.07 21.628 128.686 21.844C128.326 22.06 128.146 22.36 128.146 22.744C128.146 23.176 128.35 23.512 128.758 23.752C129.19 23.992 129.742 24.208 130.414 24.4C131.086 24.568 131.782 24.772 132.502 25.012C133.246 25.228 133.942 25.54 134.59 25.948C135.262 26.356 135.802 26.896 136.21 27.568C136.642 28.24 136.858 29.104 136.858 30.16C136.858 31.864 136.246 33.22 135.022 34.228C133.798 35.212 132.13 35.704 130.018 35.704Z" fill="#111111"/>
<path d="M115.527 35.308V25.336C115.527 24.304 115.203 23.464 114.555 22.816C113.907 22.168 113.067 21.844 112.035 21.844C111.363 21.844 110.763 21.988 110.235 22.276C109.707 22.564 109.287 22.972 108.975 23.5C108.687 24.028 108.543 24.64 108.543 25.336L106.707 24.4C106.707 23.032 106.995 21.844 107.571 20.836C108.171 19.804 108.987 19 110.019 18.424C111.075 17.848 112.263 17.56 113.583 17.56C114.855 17.56 115.995 17.884 117.003 18.532C118.011 19.156 118.803 19.984 119.379 21.016C119.955 22.024 120.243 23.116 120.243 24.292V35.308H115.527ZM103.827 35.308V17.92H108.543V35.308H103.827Z" fill="#111111"/>
<path d="M89.935 35.668C88.351 35.668 86.923 35.272 85.651 34.48C84.379 33.688 83.383 32.608 82.663 31.24C81.943 29.872 81.583 28.336 81.583 26.632C81.583 24.904 81.943 23.356 82.663 21.988C83.383 20.62 84.379 19.54 85.651 18.748C86.923 17.956 88.351 17.56 89.935 17.56C91.183 17.56 92.299 17.812 93.283 18.316C94.267 18.82 95.047 19.528 95.623 20.44C96.223 21.328 96.547 22.336 96.595 23.464V29.728C96.547 30.88 96.223 31.9 95.623 32.788C95.047 33.676 94.267 34.384 93.283 34.912C92.299 35.416 91.183 35.668 89.935 35.668ZM90.799 31.312C92.119 31.312 93.187 30.88 94.003 30.016C94.819 29.128 95.227 27.988 95.227 26.596C95.227 25.684 95.035 24.88 94.651 24.184C94.291 23.464 93.775 22.912 93.103 22.528C92.455 22.12 91.687 21.916 90.799 21.916C89.935 21.916 89.167 22.12 88.495 22.528C87.847 22.912 87.331 23.464 86.947 24.184C86.587 24.88 86.407 25.684 86.407 26.596C86.407 27.532 86.587 28.36 86.947 29.08C87.331 29.776 87.847 30.328 88.495 30.736C89.167 31.12 89.935 31.312 90.799 31.312ZM94.975 35.308V30.628L95.731 26.38L94.975 22.204V17.92H99.655V35.308H94.975Z" fill="#111111"/>
<path d="M68.1787 35.308V17.92H72.8947V35.308H68.1787ZM72.8947 25.696L71.0587 24.472C71.2747 22.336 71.8987 20.656 72.9307 19.432C73.9627 18.184 75.4507 17.56 77.3947 17.56C78.2347 17.56 78.9907 17.704 79.6627 17.992C80.3347 18.256 80.9467 18.7 81.4987 19.324L78.5467 22.708C78.2827 22.42 77.9587 22.204 77.5747 22.06C77.2147 21.916 76.7947 21.844 76.3147 21.844C75.3067 21.844 74.4787 22.168 73.8307 22.816C73.2067 23.44 72.8947 24.4 72.8947 25.696Z" fill="#111111"/>
<path d="M55.857 35.308V10.54H60.789V35.308H55.857ZM47.793 14.356V10H68.853V14.356H47.793Z" fill="#111111"/>
<path d="M13.4062 12.2147V16.84H20.1042V35.8339H24.7646V16.84H31.4644V12.2147H13.4062Z" fill="#D81320"/>
<g opacity="0.3" filter="url(#filter0_f_12_81)">
<path d="M24.7625 20.1382H20.104V26.4481H24.7625V20.1382Z" fill="white"/>
</g>
<path d="M42.9402 24.6452C42.9305 24.7596 42.9209 24.8719 42.9074 24.9863C42.5454 28.7204 41.282 32.0858 39.1406 35.0313C38.2855 36.2083 37.2899 37.3203 36.1556 38.3613C32.1095 42.0974 27.2488 43.994 21.7044 43.994C15.8654 43.994 10.814 41.9219 6.68896 37.8309C4.58791 35.7706 2.9972 33.4501 1.95727 30.9384L1.74544 30.4199H6.12662L6.23062 30.617C7.04523 32.1962 8.14678 33.6749 9.50639 35.0155C12.8688 38.3337 16.9746 40.0154 21.7063 40.0154C26.1549 40.0154 30.0778 38.5032 33.3632 35.5222C33.5423 35.3606 33.7175 35.195 33.8889 35.0274C36.7141 32.2692 38.3779 28.8939 38.8401 24.9823H1.08296L1.04637 24.6531C1.04059 24.6156 0.946229 23.7245 1.04444 21.3645C1.05022 21.2463 1.056 21.126 1.06178 21.0077C1.31791 16.7058 3.02417 12.7903 6.13818 9.33613C6.66007 8.75452 7.22433 8.18672 7.8271 7.63271C11.8713 3.89466 16.7339 2 22.2764 2C28.1154 2 33.1667 4.07407 37.2918 8.16306C39.3928 10.2253 40.9835 12.5458 42.0235 15.0576L42.2372 15.5761H37.8541L37.7521 15.377C36.9355 13.7977 35.834 12.3191 34.4743 10.9804C31.1196 7.66229 27.0138 5.97858 22.2802 5.97858C18.4363 5.97858 14.9834 7.10828 11.9965 9.34008C11.5266 9.68904 11.0682 10.0656 10.6234 10.4698C7.47853 13.3187 5.6394 16.8635 5.14639 21.0116H42.9113L42.9382 21.3527C42.944 21.4198 43.073 23.0187 42.9402 24.6452Z" fill="#D81320"/>
<defs>
<filter id="filter0_f_12_81" x="0.104004" y="0.138245" width="44.6587" height="46.3099" filterUnits="userSpaceOnUse" color-interpolation-filters="sRGB">
<feFlood flood-opacity="0" result="BackgroundImageFix"/>
<feBlend mode="normal" in="SourceGraphic" in2="BackgroundImageFix" result="shape"/>
<feGaussianBlur stdDeviation="10" result="effect1_foregroundBlur_12_81"/>
</filter>
</defs>
</svg>
